<svg xmlns="http://www.w3.org/2000/svg" width="40" height="30" viewBox="0 0 40 30"><path fill="#fff" d="M35.465.253h-30.93c-2.486 0-4.501 2.016-4.501 4.501v20.492c0 2.485 2.015 4.501 4.501 4.501h30.93c2.485 0 4.501-2.016 4.501-4.501v-20.492c0-2.485-2.016-4.501-4.501-4.501zm-27.391 13.592h6.663c.564 0 1.022.458 1.022 1.022s-.458 1.021-1.022 1.021h-6.663c-.564 0-1.021-.456-1.021-1.021s.456-1.022 1.021-1.022zm10.594 11.209h-10.617c-.552 0-.999-.447-.999-1 0-.552.447-.999.999-.999h10.617c.552 0 .999.447.999.999s-.447 1-.999 1zm3.45-4.58h-14.052c-.56 0-1.014-.453-1.014-1.014 0-.56.454-1.013 1.014-1.013h14.052c.56 0 1.013.453 1.013 1.013 0 .561-.453 1.014-1.013 1.014zm13.562-15.703c-.276 0-.5.224-.5.499 0 .276.224.5.5.5v.5c-.276 0-.5.224-.5.499 0 .276.224.5.5.5v.5c-.276 0-.5.224-.5.499 0 .276.224.5.5.5v.5c-.276 0-.5.224-.5.499 0 .276.224.5.5.5v.5c-.276 0-.5.224-.5.5 0 .275.224.499.5.499v.303h-.705c0-.276-.224-.5-.5-.5-.275 0-.499.224-.499.5h-.5c0-.276-.224-.5-.5-.5-.275 0-.499.224-.499.5h-.5c0-.276-.225-.5-.5-.5s-.5.224-.5.5h-.5c0-.276-.224-.5-.5-.5-.275 0-.499.224-.499.5h-.705v-.303c.275 0 .499-.224.499-.499 0-.276-.224-.5-.499-.5v-.5c.275 0 .499-.224.499-.5 0-.275-.224-.499-.499-.499v-.5c.275 0 .499-.224.499-.5 0-.275-.224-.499-.499-.499v-.5c.275 0 .499-.224.499-.5 0-.275-.224-.499-.499-.499v-.5c.275 0 .499-.224.499-.5 0-.275-.224-.499-.499-.499v-.298h.705c.004.273.226.494.499.494.275 0 .497-.221.5-.494h.5c.004.273.226.494.5.494s.496-.221.5-.494h.5c.003.273.225.494.499.494s.496-.221.5-.494h.5c.003.273.225.494.499.494s.496-.221.5-.494h.705v.298z"/></svg>