<svg xmlns="http://www.w3.org/2000/svg" width="173" height="42" viewBox="0 0 173 42"><path d="M33.72 7.155c.338.213.731.337 1.265.337.707 0 1.291-.361 1.291-1.176 0-1.125-2.629-1.265-2.629-2.77 0-.92.805-1.494 1.816-1.494.279 0 .73.042 1.125.188l-.091.518c-.255-.139-.658-.214-1.044-.214-.592 0-1.24.247-1.24.986 0 1.15 2.629 1.159 2.629 2.834 0 1.159-.995 1.619-1.881 1.619-.56 0-.996-.115-1.298-.246l.057-.582zM41.294 4.253c-.279-.123-.616-.213-.895-.213-1.01 0-1.577.731-1.577 1.75 0 .953.575 1.75 1.52 1.75.328 0 .632-.073.945-.189l.049.485c-.354.124-.682.148-1.076.148-1.347 0-2.005-1.026-2.005-2.193 0-1.289.83-2.193 2.071-2.193.501 0 .862.115 1.01.164l-.042.491zM42.854 1.722h.518v2.679h.016c.222-.459.689-.805 1.307-.805 1.125 0 1.43.747 1.43 1.782v2.507h-.518v-2.498c0-.723-.139-1.347-.994-1.347-.92 0-1.241.872-1.241 1.603v2.243h-.518v-6.164zM52.366 7.886h-.624l-1.142-3.624h-.016l-1.142 3.624h-.625l-1.347-4.191h.567l1.101 3.624h.017l1.167-3.624h.624l1.11 3.624h.017l1.159-3.624h.518l-1.384 4.191zM57.901 7.754c-.362.148-.83.229-1.216.229-1.389 0-1.907-.936-1.907-2.193 0-1.281.708-2.193 1.767-2.193 1.183 0 1.668.953 1.668 2.079v.262h-2.867c0 .888.478 1.603 1.38 1.603.377 0 .929-.157 1.175-.312v.525zm-.255-2.259c0-.731-.295-1.455-1.068-1.455-.764 0-1.233.765-1.233 1.455h2.301zM60.354 2.577h-.517v-.69h.517v.69zm-.517 1.118h.517v4.191h-.517v-4.191zM61.915 7.451l2.522-3.312h-2.423v-.443h3.024v.443l-2.522 3.303h2.522v.443h-3.122l-.001-.434zM69.398 7.754c-.363.148-.83.229-1.216.229-1.389 0-1.907-.936-1.907-2.193 0-1.281.707-2.193 1.766-2.193 1.184 0 1.668.953 1.668 2.079v.262h-2.868c0 .888.477 1.603 1.38 1.603.378 0 .93-.157 1.176-.312v.525zm-.254-2.259c0-.731-.295-1.455-1.068-1.455-.764 0-1.232.765-1.232 1.455h2.3zM71.334 4.631c0-.46 0-.632-.033-.937h.518v.806h.016c.188-.468.542-.904 1.076-.904.122 0 .271.023.361.049v.542c-.107-.032-.247-.049-.378-.049-.822 0-1.044.92-1.044 1.677v2.071h-.518l.002-3.255zM75.228 2.577h-.518v-.69h.518v.69zm-.518 1.118h.518v4.191h-.518v-4.191zM76.853 7.277c.312.157.691.263 1.094.263.493 0 .928-.271.928-.748 0-.994-2.012-.838-2.012-2.054 0-.83.674-1.141 1.364-1.141.223 0 .666.049 1.036.189l-.05.453c-.271-.125-.642-.199-.929-.199-.534 0-.904.164-.904.698 0 .78 2.062.684 2.062 2.054 0 .889-.83 1.191-1.463 1.191-.402 0-.804-.049-1.174-.197l.048-.509zM83.736 4.253c-.278-.123-.615-.213-.896-.213-1.01 0-1.577.731-1.577 1.75 0 .953.575 1.75 1.521 1.75.328 0 .633-.073.945-.189l.049.485c-.354.124-.682.148-1.076.148-1.348 0-2.005-1.026-2.005-2.193 0-1.289.83-2.193 2.071-2.193.5 0 .862.115 1.01.164l-.042.491zM85.296 1.722h.517v2.679h.017c.222-.459.69-.805 1.307-.805 1.126 0 1.429.747 1.429 1.782v2.507h-.517v-2.498c0-.723-.14-1.347-.995-1.347-.919 0-1.241.872-1.241 1.603v2.243h-.517v-6.164zM93.313 7.754c-.364.148-.831.229-1.217.229-1.39 0-1.906-.936-1.906-2.193 0-1.281.707-2.193 1.765-2.193 1.186 0 1.67.953 1.67 2.079v.262h-2.868c0 .888.478 1.603 1.381 1.603.379 0 .929-.157 1.176-.312v.525zm-.256-2.259c0-.731-.294-1.455-1.067-1.455-.764 0-1.232.765-1.232 1.455h2.299zM98.23 2.149h2.812v.494h-2.245v2.045h2.128v.494h-2.128v2.211h2.343v.492h-2.91v-5.736zM103.438 2.577h-.518v-.69h.518v.69zm-.518 1.118h.518v4.191h-.518v-4.191zM108.702 7.886h-.517v-.665h-.018c-.279.534-.708.763-1.307.763-1.149 0-1.727-.953-1.727-2.193 0-1.273.494-2.193 1.727-2.193.821 0 1.231.6 1.307.806h.018v-2.679h.517v6.161zm-1.757-.346c.919 0 1.24-.986 1.24-1.75 0-.765-.321-1.75-1.24-1.75-.987 0-1.242.937-1.242 1.75s.255 1.75 1.242 1.75zM113.908 7.54c0 1.167-.524 2.12-1.963 2.12-.551 0-1.053-.156-1.266-.222l.042-.518c.318.164.78.297 1.231.297 1.332 0 1.447-.97 1.447-2.153h-.017c-.279.609-.739.822-1.273.822-1.341 0-1.768-1.167-1.768-2.096 0-1.274.493-2.193 1.727-2.193.56 0 .919.075 1.306.575h.018v-.477h.517l-.001 3.845zm-1.789-.099c.935 0 1.273-.888 1.273-1.651 0-1.011-.297-1.75-1.242-1.75-.985 0-1.24.937-1.24 1.75 0 .822.33 1.651 1.209 1.651zM118.606 7.754c-.362.148-.83.229-1.217.229-1.389 0-1.906-.936-1.906-2.193 0-1.281.708-2.193 1.768-2.193 1.182 0 1.667.953 1.667 2.079v.262h-2.867c0 .888.477 1.603 1.38 1.603.378 0 .93-.157 1.176-.312v.525zm-.254-2.259c0-.731-.296-1.455-1.067-1.455-.766 0-1.232.765-1.232 1.455h2.299zM120.543 4.681c0-.321 0-.649-.032-.986h.5v.748h.017c.174-.378.485-.846 1.357-.846 1.035 0 1.429.69 1.429 1.611v2.678h-.518v-2.547c0-.79-.28-1.299-.994-1.299-.944 0-1.241.83-1.241 1.528v2.317h-.518v-3.204zM127.386 3.597c1.354 0 1.956 1.052 1.956 2.193s-.602 2.193-1.956 2.193c-1.356 0-1.956-1.052-1.956-2.193 0-1.142.598-2.193 1.956-2.193zm0 3.943c.903 0 1.389-.781 1.389-1.75 0-.97-.485-1.75-1.389-1.75-.905 0-1.39.78-1.39 1.75 0 .969.484 1.75 1.39 1.75zM130.638 7.277c.312.157.689.263 1.093.263.492 0 .928-.271.928-.748 0-.994-2.012-.838-2.012-2.054 0-.83.674-1.141 1.363-1.141.223 0 .666.049 1.036.189l-.05.453c-.271-.125-.641-.199-.93-.199-.534 0-.903.164-.903.698 0 .78 2.062.684 2.062 2.054 0 .889-.83 1.191-1.462 1.191-.404 0-.806-.049-1.177-.197l.052-.509zM134.471 7.277c.313.157.692.263 1.095.263.492 0 .929-.271.929-.748 0-.994-2.015-.838-2.015-2.054 0-.83.676-1.141 1.366-1.141.222 0 .665.049 1.035.189l-.049.453c-.271-.125-.642-.199-.931-.199-.534 0-.903.164-.903.698 0 .78 2.062.684 2.062 2.054 0 .889-.829 1.191-1.463 1.191-.403 0-.805-.049-1.174-.197l.048-.509zM141.437 7.754c-.362.148-.83.229-1.216.229-1.389 0-1.906-.936-1.906-2.193 0-1.281.706-2.193 1.766-2.193 1.185 0 1.669.953 1.669 2.079v.262h-2.867c0 .888.477 1.603 1.38 1.603.378 0 .93-.157 1.175-.312v.525h-.001zm-.254-2.259c0-.731-.296-1.455-1.07-1.455-.762 0-1.23.765-1.23 1.455h2.3zM143.374 4.681c0-.321 0-.649-.033-.986h.503v.748h.015c.172-.378.485-.846 1.357-.846 1.035 0 1.43.69 1.43 1.611v2.678h-.521v-2.547c0-.79-.277-1.299-.994-1.299-.942 0-1.239.83-1.239 1.528v2.317h-.518v-3.204zM148.262 7.277c.311.157.688.263 1.092.263.493 0 .929-.271.929-.748 0-.994-2.012-.838-2.012-2.054 0-.83.673-1.141 1.362-1.141.224 0 .668.049 1.037.189l-.05.453c-.271-.125-.641-.199-.928-.199-.534 0-.905.164-.905.698 0 .78 2.062.684 2.062 2.054 0 .889-.829 1.191-1.463 1.191-.402 0-.805-.049-1.174-.197l.05-.509zM155.145 4.253c-.279-.123-.617-.214-.895-.214-1.011 0-1.577.731-1.577 1.75 0 .953.574 1.75 1.52 1.75.328 0 .632-.073.943-.189l.051.485c-.354.124-.683.148-1.076.148-1.348 0-2.005-1.026-2.005-2.193 0-1.289.829-2.193 2.07-2.193.501 0 .862.115 1.011.164l-.042.492zM156.704 1.722h.518v2.679h.017c.222-.459.689-.805 1.307-.805 1.125 0 1.429.747 1.429 1.782v2.507h-.518v-2.498c0-.723-.141-1.347-.994-1.347-.921 0-1.241.872-1.241 1.603v2.243h-.517v-6.164h-.001zM164.318 7.211h-.018c-.229.501-.813.772-1.331.772-1.192 0-1.382-.804-1.382-1.183 0-1.405 1.497-1.471 2.58-1.471h.1v-.213c0-.714-.255-1.077-.953-1.077-.436 0-.846.099-1.231.345v-.501c.32-.156.861-.287 1.231-.287 1.036 0 1.47.468 1.47 1.562v1.848c0 .337 0 .592.041.879h-.509v-.674h.002zm-.049-1.438h-.15c-.895 0-1.964.09-1.964 1.01 0 .551.395.756.872.756 1.217 0 1.242-1.06 1.242-1.512v-.254zM167.012 4.138h-.848v-.443h.848v-.304c0-.879.031-1.767 1.108-1.767.164 0 .388.024.483.083l-.032.452c-.106-.059-.262-.091-.411-.091-.707 0-.632.764-.632 1.265v.362h.944v.443h-.944v3.747h-.517v-3.747zM171.84 4.138h-.953v2.712c0 .378.139.69.558.69.198 0 .33-.042.478-.099l.032.427c-.123.049-.377.115-.632.115-.921 0-.953-.633-.953-1.396v-2.449h-.821v-.443h.821v-1.01l.518-.182v1.192h.953v.443h-.001zM37.813 14.119c-.363-.188-.879-.247-1.282-.247-1.487 0-2.326 1.052-2.326 2.474 0 1.446.813 2.474 2.326 2.474.378 0 .953-.049 1.282-.247l.033.493c-.312.19-.954.248-1.314.248-1.808 0-2.893-1.191-2.893-2.966 0-1.742 1.118-2.966 2.893-2.966.337 0 1.019.058 1.314.213l-.033.524zM41.574 14.925c1.355 0 1.956 1.051 1.956 2.193 0 1.143-.6 2.194-1.956 2.194-1.356 0-1.956-1.051-1.956-2.194 0-1.142.599-2.193 1.956-2.193zm0 3.942c.903 0 1.389-.78 1.389-1.75s-.485-1.75-1.389-1.75c-.905 0-1.389.78-1.389 1.75s.484 1.75 1.389 1.75zM45.145 16.009c0-.321 0-.649-.033-.986h.501v.747h.016c.173-.377.485-.845 1.356-.845 1.035 0 1.43.69 1.43 1.61v2.679h-.518v-2.547c0-.79-.279-1.298-.994-1.298-.944 0-1.241.83-1.241 1.527v2.318h-.518v-3.205zM50.704 15.466h-.846v-.443h.846v-.305c0-.878.033-1.766 1.11-1.766.163 0 .386.024.484.082l-.033.453c-.107-.058-.263-.091-.41-.091-.708 0-.633.764-.633 1.266v.362h.946v.443h-.946v3.747h-.518v-3.748zM56.537 19.082c-.362.148-.83.23-1.215.23-1.39 0-1.907-.937-1.907-2.194 0-1.282.708-2.193 1.767-2.193 1.183 0 1.668.953 1.668 2.078v.262h-2.868c0 .887.478 1.602 1.38 1.602.378 0 .929-.156 1.175-.311v.526zm-.255-2.26c0-.731-.296-1.455-1.068-1.455-.764 0-1.232.764-1.232 1.455h2.3zm-.863-3.418h.649l-1.036 1.184h-.378l.765-1.184zM61.792 19.214h-.517v-.666h-.017c-.279.534-.708.764-1.307.764-1.151 0-1.727-.954-1.727-2.194 0-1.274.494-2.194 1.727-2.194.822 0 1.232.601 1.307.806h.017v-2.679h.517v6.163zm-1.758-.347c.921 0 1.24-.986 1.24-1.75s-.319-1.75-1.24-1.75c-.986 0-1.241.936-1.241 1.75-.001.815.255 1.75 1.241 1.75zM66.49 19.082c-.361.148-.829.23-1.215.23-1.389 0-1.907-.937-1.907-2.194 0-1.282.708-2.193 1.767-2.193 1.183 0 1.667.953 1.667 2.078v.262h-2.867c0 .887.477 1.602 1.38 1.602.379 0 .93-.156 1.175-.311v.526zm-.255-2.26c0-.731-.295-1.455-1.068-1.455-.764 0-1.232.764-1.232 1.455h2.3zm-.862-3.418h.649l-1.035 1.184h-.378l.764-1.184zM68.427 15.96c0-.46 0-.633-.033-.936h.518v.804h.016c.188-.469.542-.903 1.076-.903.123 0 .272.023.361.049v.541c-.107-.033-.246-.049-.377-.049-.822 0-1.044.92-1.044 1.675v2.071h-.518l.001-3.252zM74.21 18.54h-.017c-.23.501-.813.772-1.331.772-1.191 0-1.381-.806-1.381-1.183 0-1.405 1.495-1.471 2.58-1.471h.099v-.213c0-.715-.254-1.076-.954-1.076-.436 0-.846.099-1.232.345v-.501c.32-.157.862-.287 1.232-.287 1.035 0 1.471.468 1.471 1.56v1.849c0 .337 0 .592.041.879h-.508v-.674zm-.049-1.438h-.148c-.895 0-1.963.091-1.963 1.01 0 .55.394.755.872.755 1.216 0 1.24-1.059 1.24-1.511v-.254zM78.356 15.466h-.953v2.712c0 .378.139.689.558.689.197 0 .328-.042.478-.098l.033.427c-.123.049-.378.115-.633.115-.92 0-.954-.632-.954-1.397v-2.448h-.822v-.443h.822v-1.01l.518-.182v1.192h.953v.443zM80.442 13.905h-.518v-.69h.518v.69zm-.517 1.118h.518v4.191h-.518v-4.191zM84.022 14.925c1.356 0 1.956 1.051 1.956 2.193 0 1.143-.6 2.194-1.956 2.194-1.355 0-1.956-1.051-1.956-2.194.001-1.142.601-2.193 1.956-2.193zm0 3.942c.905 0 1.389-.78 1.389-1.75s-.484-1.75-1.389-1.75c-.903 0-1.388.78-1.388 1.75s.485 1.75 1.388 1.75zM87.595 16.009c0-.321 0-.649-.032-.986h.501v.747h.018c.173-.377.484-.845 1.354-.845 1.036 0 1.431.69 1.431 1.61v2.679h-.517v-2.547c0-.79-.279-1.298-.994-1.298-.944 0-1.241.83-1.241 1.527v2.318h-.519v-3.205zM95.404 18.605c.312.157.69.262 1.094.262.491 0 .928-.271.928-.747 0-.994-2.014-.838-2.014-2.054 0-.83.677-1.141 1.366-1.141.222 0 .664.049 1.035.189l-.05.452c-.271-.123-.641-.197-.93-.197-.533 0-.904.164-.904.698 0 .78 2.062.682 2.062 2.055 0 .888-.829 1.191-1.461 1.191-.403 0-.805-.049-1.176-.198l.05-.51zM102.83 18.227c0 .321 0 .649.033.987h-.502v-.748h-.017c-.172.377-.483.846-1.355.846-1.036 0-1.43-.69-1.43-1.611v-2.678h.518v2.546c0 .789.279 1.298.996 1.298.944 0 1.24-.829 1.24-1.528v-2.316h.517v3.204zM105.284 13.905h-.518v-.69h.518v.69zm-.517 1.118h.518v4.191h-.518v-4.191zM106.909 18.605c.312.157.69.262 1.094.262.491 0 .928-.271.928-.747 0-.994-2.014-.838-2.014-2.054 0-.83.677-1.141 1.366-1.141.222 0 .664.049 1.035.189l-.05.452c-.271-.123-.641-.197-.929-.197-.535 0-.904.164-.904.698 0 .78 2.062.682 2.062 2.055 0 .888-.829 1.191-1.462 1.191-.401 0-.804-.049-1.174-.198l.048-.51zM110.743 18.605c.312.157.691.262 1.096.262.491 0 .927-.271.927-.747 0-.994-2.013-.838-2.013-2.054 0-.83.675-1.141 1.366-1.141.222 0 .664.049 1.034.189l-.049.452c-.271-.123-.643-.197-.93-.197-.533 0-.903.164-.903.698 0 .78 2.061.682 2.061 2.055 0 .888-.829 1.191-1.462 1.191-.402 0-.804-.049-1.173-.198l.046-.51zM117.711 19.082c-.362.148-.83.23-1.217.23-1.388 0-1.905-.937-1.905-2.194 0-1.282.706-2.193 1.766-2.193 1.183 0 1.668.953 1.668 2.078v.262h-2.866c0 .887.478 1.602 1.378 1.602.379 0 .931-.156 1.177-.311v.526zm-.255-2.26c0-.731-.295-1.455-1.069-1.455-.762 0-1.23.764-1.23 1.455h2.299zM37.813 25.448c-.363-.19-.879-.248-1.282-.248-1.487 0-2.326 1.052-2.326 2.474 0 1.445.813 2.473 2.326 2.473.378 0 .953-.048 1.282-.245l.033.491c-.312.19-.954.248-1.314.248-1.808 0-2.893-1.192-2.893-2.967 0-1.742 1.118-2.967 2.893-2.967.337 0 1.019.058 1.314.214l-.033.527zM41.574 26.252c1.355 0 1.956 1.052 1.956 2.193s-.6 2.193-1.956 2.193c-1.356 0-1.956-1.052-1.956-2.193s.599-2.193 1.956-2.193zm0 3.943c.903 0 1.389-.78 1.389-1.75s-.485-1.75-1.389-1.75c-.905 0-1.389.78-1.389 1.75 0 .971.484 1.75 1.389 1.75zM45.145 27.337c0-.32 0-.649-.033-.986h.501v.747h.016c.173-.377.485-.846 1.356-.846 1.035 0 1.43.691 1.43 1.611v2.677h-.518v-2.545c0-.79-.279-1.3-.994-1.3-.944 0-1.241.829-1.241 1.528v2.316h-.518v-3.202zM50.704 26.793h-.846v-.442h.846v-.305c0-.878.033-1.767 1.11-1.767.163 0 .386.024.484.082l-.033.453c-.107-.059-.263-.092-.41-.092-.708 0-.633.765-.633 1.267v.361h.946v.442h-.946v3.747h-.518v-3.746zM56.537 30.41c-.362.147-.83.23-1.215.23-1.39 0-1.907-.937-1.907-2.195 0-1.28.708-2.193 1.767-2.193 1.183 0 1.668.953 1.668 2.081v.261h-2.868c0 .889.478 1.603 1.38 1.603.378 0 .929-.156 1.175-.312v.525zm-.255-2.26c0-.731-.296-1.455-1.068-1.455-.764 0-1.232.764-1.232 1.455h2.3zM61.792 30.54h-.517v-.664h-.017c-.279.534-.708.765-1.307.765-1.151 0-1.727-.954-1.727-2.195 0-1.273.494-2.193 1.727-2.193.822 0 1.232.602 1.307.807h.017v-2.68h.517v6.16zm-1.758-.345c.921 0 1.24-.986 1.24-1.75s-.319-1.75-1.24-1.75c-.986 0-1.241.937-1.241 1.75 0 .816.255 1.75 1.241 1.75zM66.49 30.41c-.361.147-.829.23-1.215.23-1.389 0-1.907-.937-1.907-2.195 0-1.28.708-2.193 1.767-2.193 1.183 0 1.667.953 1.667 2.081v.261h-2.867c0 .889.477 1.603 1.38 1.603.379 0 .93-.156 1.175-.312v.525zm-.255-2.26c0-.731-.295-1.455-1.068-1.455-.764 0-1.232.764-1.232 1.455h2.3zM68.427 27.287c0-.46 0-.633-.033-.937h.518v.807h.016c.188-.47.542-.905 1.076-.905.123 0 .272.023.361.05v.544c-.107-.034-.246-.051-.377-.051-.822 0-1.044.92-1.044 1.677v2.07h-.518l.001-3.255zM74.21 29.867h-.017c-.23.502-.813.773-1.331.773-1.191 0-1.381-.806-1.381-1.184 0-1.406 1.495-1.471 2.58-1.471h.099v-.215c0-.713-.254-1.076-.954-1.076-.436 0-.846.098-1.232.345v-.501c.32-.156.862-.289 1.232-.289 1.035 0 1.471.47 1.471 1.562v1.85c0 .335 0 .591.041.878h-.508v-.672zm-.049-1.436h-.148c-.895 0-1.963.09-1.963 1.009 0 .552.394.756.872.756 1.216 0 1.24-1.06 1.24-1.511v-.254zM76.164 30.106l2.522-3.312h-2.423v-.442h3.024v.442l-2.523 3.304h2.523v.441h-3.122v-.434h-.001zM81.353 25.232h-.518v-.69h.518v.69zm-.516 1.119h.517v4.189h-.517v-4.189zM84.935 26.252c1.356 0 1.956 1.052 1.956 2.193s-.6 2.193-1.956 2.193c-1.356 0-1.956-1.052-1.956-2.193s.599-2.193 1.956-2.193zm0 3.943c.904 0 1.389-.78 1.389-1.75s-.485-1.75-1.389-1.75-1.39.78-1.39 1.75c0 .971.486 1.75 1.39 1.75zM88.508 27.337c0-.32 0-.649-.034-.986h.502v.747h.015c.174-.377.485-.846 1.358-.846 1.034 0 1.428.691 1.428 1.611v2.677h-.518v-2.545c0-.79-.278-1.3-.994-1.3-.943 0-1.239.829-1.239 1.528v2.316h-.518v-3.202zM96.521 30.41c-.361.147-.828.23-1.215.23-1.389 0-1.906-.937-1.906-2.195 0-1.28.707-2.193 1.766-2.193 1.184 0 1.668.953 1.668 2.081v.261h-2.867c0 .889.478 1.603 1.38 1.603.38 0 .93-.156 1.175-.312v.525zm-.253-2.26c0-.731-.295-1.455-1.069-1.455-.763 0-1.231.764-1.231 1.455h2.3zM101.285 29.81c.337.214.73.337 1.266.337.707 0 1.291-.36 1.291-1.174 0-1.125-2.63-1.267-2.63-2.77 0-.922.806-1.496 1.814-1.496.28 0 .731.043 1.126.189l-.091.519c-.254-.141-.658-.215-1.043-.215-.593 0-1.241.248-1.241.985 0 1.151 2.629 1.159 2.629 2.835 0 1.158-.994 1.62-1.882 1.62-.56 0-.994-.114-1.298-.248l.059-.582zM107.585 30.54h-.609l-1.421-4.189h.567l1.158 3.623h.017l1.215-3.623h.543l-1.47 4.189zM110.935 25.232h-.518v-.69h.518v.69zm-.518 1.119h.518v4.189h-.518v-4.189zM112.494 30.106l2.522-3.312h-2.423v-.442h3.024v.442l-2.522 3.304h2.522v.441h-3.123v-.433zM116.781 30.106l2.523-3.312h-2.424v-.442h3.024v.442l-2.523 3.304h2.523v.441h-3.123v-.433zM124.265 30.41c-.362.147-.83.23-1.217.23-1.388 0-1.906-.937-1.906-2.195 0-1.28.707-2.193 1.768-2.193 1.183 0 1.667.953 1.667 2.081v.261h-2.867c0 .889.478 1.603 1.381 1.603.377 0 .929-.156 1.175-.312v.525zm-.255-2.26c0-.731-.296-1.455-1.068-1.455-.763 0-1.232.764-1.232 1.455h2.3zM126.201 27.287c0-.46 0-.633-.031-.937h.517v.807h.018c.187-.47.54-.905 1.074-.905.123 0 .271.023.362.05v.544c-.108-.034-.247-.051-.378-.051-.822 0-1.044.92-1.044 1.677v2.07h-.518v-3.255zM131.983 29.867h-.017c-.229.502-.812.773-1.329.773-1.192 0-1.381-.806-1.381-1.184 0-1.406 1.496-1.471 2.579-1.471h.099v-.215c0-.713-.255-1.076-.954-1.076-.436 0-.845.098-1.23.345v-.501c.32-.156.864-.289 1.23-.289 1.036 0 1.471.47 1.471 1.562v1.85c0 .335 0 .591.043.878h-.511v-.672zm-.048-1.436h-.147c-.896 0-1.963.09-1.963 1.009 0 .552.395.756.87.756 1.217 0 1.24-1.06 1.24-1.511v-.254zM37.813 36.773c-.363-.188-.879-.246-1.282-.246-1.487 0-2.326 1.052-2.326 2.473 0 1.447.813 2.476 2.326 2.476.378 0 .953-.05 1.282-.248l.033.493c-.312.189-.954.246-1.314.246-1.808 0-2.893-1.192-2.893-2.967 0-1.74 1.118-2.966 2.893-2.966.337 0 1.019.058 1.314.214l-.033.525zM41.574 37.579c1.355 0 1.956 1.052 1.956 2.193s-.6 2.193-1.956 2.193c-1.356 0-1.956-1.052-1.956-2.193s.599-2.193 1.956-2.193zm0 3.944c.903 0 1.389-.78 1.389-1.75s-.485-1.751-1.389-1.751c-.905 0-1.389.781-1.389 1.751s.484 1.75 1.389 1.75zM45.145 38.665c0-.321 0-.649-.033-.986h.501v.748h.016c.173-.379.485-.847 1.356-.847 1.035 0 1.43.689 1.43 1.611v2.679h-.518v-2.548c0-.789-.279-1.3-.994-1.3-.944 0-1.241.831-1.241 1.528v2.318h-.518v-3.203zM50.704 38.121h-.846v-.442h.846v-.304c0-.879.033-1.769 1.11-1.769.163 0 .386.025.484.084l-.033.451c-.107-.058-.263-.09-.41-.09-.708 0-.633.763-.633 1.265v.362h.946v.442h-.946v3.748h-.518v-3.747zM56.537 41.736c-.362.149-.83.23-1.215.23-1.39 0-1.907-.937-1.907-2.193 0-1.281.708-2.193 1.767-2.193 1.183 0 1.668.953 1.668 2.077v.265h-2.868c0 .887.478 1.602 1.38 1.602.378 0 .929-.156 1.175-.312v.524zm-.255-2.257c0-.731-.296-1.456-1.068-1.456-.764 0-1.232.766-1.232 1.456h2.3zM61.792 41.869h-.517v-.667h-.017c-.279.534-.708.765-1.307.765-1.151 0-1.727-.953-1.727-2.193 0-1.273.494-2.193 1.727-2.193.822 0 1.232.6 1.307.807h.017v-2.68h.517v6.161zm-1.758-.346c.921 0 1.24-.986 1.24-1.75s-.319-1.751-1.24-1.751c-.986 0-1.241.938-1.241 1.751 0 .815.255 1.75 1.241 1.75zM66.49 41.736c-.361.149-.829.23-1.215.23-1.389 0-1.907-.937-1.907-2.193 0-1.281.708-2.193 1.767-2.193 1.183 0 1.667.953 1.667 2.077v.265h-2.867c0 .887.477 1.602 1.38 1.602.379 0 .93-.156 1.175-.312v.524zm-.255-2.257c0-.731-.295-1.456-1.068-1.456-.764 0-1.232.766-1.232 1.456h2.3zM68.427 38.614c0-.46 0-.632-.033-.936h.518v.806h.016c.188-.469.542-.904 1.076-.904.123 0 .272.023.361.049v.543c-.107-.032-.246-.05-.377-.05-.822 0-1.044.921-1.044 1.676v2.073h-.518l.001-3.257zM74.21 41.195h-.017c-.23.502-.813.773-1.331.773-1.191 0-1.381-.806-1.381-1.186 0-1.403 1.495-1.47 2.58-1.47h.099v-.212c0-.713-.254-1.077-.954-1.077-.436 0-.846.099-1.232.347v-.503c.32-.156.862-.287 1.232-.287 1.035 0 1.471.469 1.471 1.562v1.849c0 .337 0 .593.041.88h-.508v-.676zm-.049-1.439h-.148c-.895 0-1.963.093-1.963 1.012 0 .55.394.754.872.754 1.216 0 1.24-1.058 1.24-1.511v-.255zM76.164 41.433l2.522-3.312h-2.423v-.442h3.024v.442l-2.523 3.305h2.523v.443h-3.122v-.437h-.001zM81.353 36.561h-.518v-.69h.518v.69zm-.516 1.118h.517v4.191h-.517v-4.191zM86.569 40.883c0 .319 0 .649.034.987h-.502v-.748h-.017c-.172.377-.484.847-1.356.847-1.035 0-1.429-.691-1.429-1.611v-2.678h.518v2.546c0 .79.279 1.298.995 1.298.945 0 1.24-.829 1.24-1.526v-2.318h.517v3.203zM88.508 38.665c0-.321 0-.649-.034-.986h.502v.748h.015c.174-.379.485-.847 1.358-.847 1.034 0 1.428.689 1.428 1.611v2.679h-.518v-2.548c0-.789-.278-1.3-.994-1.3-.943 0-1.239.831-1.239 1.528v2.318h-.518v-3.203zM96.316 41.261c.312.156.688.263 1.092.263.493 0 .929-.271.929-.749 0-.992-2.012-.837-2.012-2.054 0-.828.673-1.141 1.363-1.141.223 0 .667.049 1.036.188l-.049.453c-.272-.124-.641-.199-.929-.199-.534 0-.904.164-.904.698 0 .781 2.062.684 2.062 2.054 0 .888-.829 1.192-1.463 1.192-.401 0-.804-.05-1.174-.198l.049-.507zM101.926 41.869h-.607l-1.423-4.191h.567l1.159 3.624h.017l1.215-3.624h.543l-1.471 4.191zM105.275 36.561h-.518v-.69h.518v.69zm-.517 1.118h.518v4.191h-.518v-4.191zM106.836 41.433l2.522-3.312h-2.424v-.442h3.024v.442l-2.523 3.305h2.523v.443h-3.123v-.436zM111.509 38.614c0-.46 0-.632-.032-.936h.518v.806h.017c.188-.469.544-.904 1.077-.904.123 0 .271.023.36.049v.543c-.107-.032-.246-.05-.376-.05-.823 0-1.047.921-1.047 1.676v2.073h-.517v-3.257zM117.292 41.195h-.017c-.229.502-.813.773-1.331.773-1.19 0-1.381-.806-1.381-1.186 0-1.403 1.495-1.47 2.581-1.47h.098v-.212c0-.713-.255-1.077-.953-1.077-.437 0-.847.099-1.232.347v-.503c.319-.156.862-.287 1.232-.287 1.036 0 1.47.469 1.47 1.562v1.849c0 .337 0 .593.043.88h-.509l-.001-.676zm-.05-1.439h-.147c-.896 0-1.963.093-1.963 1.012 0 .55.394.754.87.754 1.217 0 1.24-1.058 1.24-1.511v-.255z"/><path fill="#E30613" d="M24.321 1.902s-4.343-1.902-11.615-1.902h-.003c-7.272 0-11.617 1.902-11.617 1.902s-.388 8.423 1.26 13.186c2.913 8.375 10.356 10.727 10.356 10.727h.004s7.442-2.353 10.355-10.727c1.649-4.761 1.26-13.186 1.26-13.186z"/><path fill="#fff" d="M20.423 9.164v4.64h-5.413v5.416h-4.641v-5.416h-5.414v-4.64h5.414v-5.413h4.64l.001 5.413z"/></svg>