<?xml version="1.0" encoding="utf-8"?>
<!-- Generator: Adobe Illustrator 16.0.4, SVG Export Plug-In . SVG Version: 6.00 Build 0)  -->
<!DOCTYPE svg PUBLIC "-//W3C//DTD SVG 1.1//EN" "http://www.w3.org/Graphics/SVG/1.1/DTD/svg11.dtd">
<svg version="1.1" id="Ebene_1" xmlns="http://www.w3.org/2000/svg" xmlns:xlink="http://www.w3.org/1999/xlink" x="0px" y="0px"
	 width="35px" height="35px" viewBox="0 0 35 35" enable-background="new 0 0 35 35" xml:space="preserve">
<path fill="#FFFFFF" d="M17.478,0C7.825,0,0,7.825,0,17.478s7.825,17.478,17.478,17.478s17.478-7.825,17.478-17.478
	S27.13,0,17.478,0z M25.837,22.687c0,0-0.673,2.496-3.692,2.417c-3.019-0.081-3.66-3.3-1.567-4.669
	c2.094-1.368,3.744-0.442,3.744-0.442v-6.765c0,0-5.532,0.244-8.712,1.532c0,0-0.046,8.815-0.046,9.982s-1.572,2.576-3.786,2.495
	c-2.214-0.08-3.304-2.133-2.258-3.904c1.046-1.77,3.7-1.6,4.331-1.304V9.855c0,0,3.001-1.052,5.417-1.494
	c2.414-0.443,6.57-0.646,6.57-0.646V22.687z"/>
</svg>
