<svg xmlns="http://www.w3.org/2000/svg" width="250" height="30" viewBox="0 0 250 30"><path d="M222.479 23.987c0-6.884-2.294-10.873-8.468-10.873-6.067 0-8.634 4.426-8.634 10.929v.271h17.102v-.327z" fill="none"/><path fill="#fff" d="M5.435 17.447l.489-.261c2.455-1.318 4.208-1.932 5.517-1.932 4.027 0 4.735 2.024 4.735 6.281v8.4h5.435v-8.4c0-1.545-.069-2.804-.213-3.853l-.086-.642.573-.302c2.08-1.098 4.299-1.485 5.566-1.485 4.121 0 4.901 2.207 4.901 6.281v8.4h5.435v-8.4c0-7.577-2.386-10.668-8.238-10.668-3.635 0-5.929.87-8.664 2.372l-.674.37-.487-.594c-1.187-1.445-3.066-2.147-5.745-2.147-2.914 0-4.989.957-7.393 2.502l-1.428.919v-2.857c0-.096-.081-.179-.178-.179h-4.802c-.097.001-.178.084-.178.18v18.504h5.435v-12.489zM51.312 28.603v-.926l.926-.166h17.998c.082 0 .176-.104.177-.454v-3.093c0-8.201-4.565-13.096-12.212-13.096-7.832 0-12.325 4.774-12.325 13.096v4.086c0 .667.044 1.285.102 1.887h5.433c-.051-.433-.099-.867-.099-1.334zm.055-5.577c0-4.688 2.682-7.717 6.833-7.717 4.084 0 6.722 3.029 6.722 7.717v1.147h-13.555v-1.147zM82.834 28.05v-4.253c0-3.783.708-8.819 6.833-8.819 1.284 0 3.774.159 5.431.396l.795.112v14.45h5.435v-29.378c0-.098-.081-.18-.178-.18h-5.079c-.096 0-.177.082-.177.18v10.829l-1.05-.141c-1.752-.237-3.688-.378-5.176-.378-10.14 0-12.269 7.032-12.269 12.929v4.253c0 .618.031 1.251.084 1.887h5.429c-.055-.643-.078-1.283-.078-1.887zM110.59 5.261h5.355c.096 0 .177-.081.177-.177v-4.859c0-.096-.081-.177-.177-.177h-5.355c-.116 0-.233.104-.233.177v4.859c0 .072.118.177.233.177zM115.957 11.432c0-.096-.083-.179-.177-.179h-5.079c-.097 0-.179.083-.179.179v18.504h5.435v-18.504zM136.536 26.848h4.406v3.089h5.434v-9.449c0-6.383-3.775-9.62-11.218-9.62-3.899 0-7.067.471-9.039.867-.304.069-.304.13-.304.25v3.533l-.002.011.069.002h.277c1.726-.217 5.445-.442 8.999-.442 3.003 0 5.784.655 5.784 5.399v3.354h-4.406c-8.811 0-11.526 2.894-12.277 6.095h5.599c.781-2.184 2.843-3.089 6.678-3.089z"/><path fill="#B1B1B1" d="M162.641 13.496h6.502c.603 0 1.039-.327 1.039-.874v-.546c0-.546-.437-.82-1.039-.82h-6.502v-5.628c0-.546-.327-1.039-.873-1.039h-.602c-.6 0-.93.492-.93 1.039v5.628h-5.409c-.601 0-1.038.273-1.038.82v.546c0 .546.438.874 1.038.874h5.409v16.44h2.404v-16.44zM178.6 14.097c2.077-.601 5.026-.982 7.376-.982 5.847 0 8.087 3.005 8.087 8.361v8.461h2.351v-8.461c0-6.121-2.841-10.492-10.438-10.492-2.404 0-5.245.436-7.376.982v-10.928c0-.546-.384-1.038-.93-1.038h-.547c-.547 0-.93.492-.93 1.038v28.898h2.406v-15.839zM205.377 27.649v-1.149h18.469c.547 0 1.039-.436 1.039-1.038v-1.475c0-7.759-3.334-13.004-10.874-13.004-7.214 0-11.039 5.52-11.039 13.061v3.605c0 .812.047 1.563.113 2.287h2.409c-.068-.713-.117-1.459-.117-2.287zm0-3.605c0-6.503 2.566-10.929 8.634-10.929 6.174 0 8.468 3.989 8.468 10.873v.328h-17.102v-.272zM234.123 26.119l3.567 3.817h3.155l-4.646-4.91 13.388-12.239c.764-.657.326-1.804-.713-1.804-.434 0-.926.165-1.31.49l-13.442 12.57v-23.005c0-.546-.491-1.038-1.039-1.038h-.327c-.546 0-1.038.492-1.038 1.038v28.898h2.404v-3.817z"/></svg>