<svg xmlns="http://www.w3.org/2000/svg" width="104" height="116" viewBox="0 0 104 116"><path fill="#3A3838" d="M97.192 24.06l-38.395-22.168c-4.206-2.428-9.388-2.428-13.593 0l-38.397 22.168c-4.206 2.428-6.796 6.916-6.796 11.772v44.337c0 4.856 2.591 9.343 6.796 11.771l38.396 22.168c4.206 2.428 9.387 2.428 13.593 0l38.396-22.168c4.206-2.429 6.797-6.915 6.797-11.771v-44.337c0-4.856-2.591-9.344-6.797-11.772z"/><path fill="#fff" d="M85.363 58.453c0 2.937-1.077 5.563-3.114 7.592-2.072 2.063-5.057 3.342-7.799 3.342h-.034l-13.85-.005c-1.776-.001-3.216-1.441-3.216-3.219.001-1.775 1.441-3.215 3.217-3.215h-.597l13.861.006c1.505.003 2.906-.5 3.879-1.468.821-.818 1.221-1.811 1.221-3.034v-7.7c0-1.223-.4-2.216-1.221-3.034-.969-.964-2.37-1.467-3.258-1.467h-.01c-.729.002-4.563.002-8.456.001l-5.543-.001c-2.964 0-3.635 1.651-3.641 1.668l-.082.222-10.408 25.409c-.98 2.815-4.213 7.429-10.357 7.429-6.184 0-9.418-4.626-10.394-7.44l-7.891-19.65c-.663-1.649.138-3.522 1.786-4.184 1.648-.661 3.521.138 4.184 1.787l7.991 19.914c.105.289 1.22 3.139 4.291 3.139 3.245 0 4.313-3.107 4.324-3.139l.076-.204 10.421-25.438c.188-.502.767-1.816 2.067-3.086 1.335-1.304 3.744-2.859 7.633-2.859l5.545.001c3.88 0 7.702.001 8.429-.001 2.751 0 5.751 1.27 7.832 3.342 2.037 2.029 3.114 4.654 3.114 7.592v7.7z"/></svg>