<svg xmlns="http://www.w3.org/2000/svg" width="104" height="116" viewBox="0 0 104 116"><path fill="#3A3838" d="M97.2 24.056l-38.403-22.17c-4.205-2.428-9.387-2.428-13.594 0l-38.4 22.17c-4.205 2.428-6.797 6.917-6.797 11.773v44.341c0 4.857 2.592 9.344 6.797 11.774l38.4 22.17c4.207 2.428 9.389 2.428 13.594 0l38.403-22.17c4.204-2.431 6.794-6.917 6.794-11.774v-44.341c0-4.856-2.59-9.345-6.794-11.773z"/><path fill="#fff" d="M78.231 40.761c-2.08-2.072-5.082-3.342-7.832-3.342-.727.003-4.549.001-8.43.001l-16.802-.001c-3.889 0-6.298 1.555-7.634 2.859-1.301 1.27-1.879 2.583-2.067 3.086l-10.201 24.9-.008-.004-2.372 5.905c-.663 1.649.138 3.522 1.786 4.185 1.649.66 3.522-.139 4.184-1.786l2.415-6.02 10.173-24.801.082-.222c.005-.017.676-1.668 3.641-1.668l16.8.001c3.895 0 7.729.001 8.457-.001h.01c.887 0 2.289.502 3.258 1.466.82.818 1.221 1.811 1.221 3.035v7.7c0 1.223-.4 2.216-1.221 3.034-.973.968-2.375 1.471-3.881 1.468l-13.268-.006c-1.773.003-3.211 1.441-3.212 3.215-.001 1.777 1.438 3.218 3.216 3.219l13.852.006h.033c2.742 0 5.727-1.278 7.801-3.344 2.035-2.029 3.113-4.654 3.113-7.592v-7.7c.002-2.937-1.076-5.563-3.114-7.593z"/></svg>