<svg xmlns="http://www.w3.org/2000/svg" width="44" height="30" viewBox="0 0 44 30"><path fill="#fff" d="M42.788 4.714c-.699-1.778-1.898-2.667-3.682-3.439-1.744-.772-9.377-1.236-17.088-1.275-7.71.039-15.382.503-17.126 1.275-1.782.773-2.983 1.662-3.681 3.439-.698 1.739-1.046 6.027-1.046 10.317 0 4.287.348 8.538 1.046 10.277.697 1.777 1.898 2.665 3.68 3.478 1.744.773 9.416 1.197 17.126 1.236 7.712-.039 15.345-.463 17.089-1.236 1.783-.812 2.982-1.7 3.682-3.478.696-1.739 1.047-5.99 1.047-10.277 0-4.289-.351-8.578-1.047-10.317zm-26.233 18.469v-17.696l15.073 9.544-15.073 8.152z"/></svg>